<svg width="167" height="146" viewBox="0 0 167 146" fill="none" xmlns="http://www.w3.org/2000/svg">
<g id="Logo">
<g id="Group">
<g id="Group_2">
<path id="Vector" d="M55.3392 7.30306C55.3392 7.30306 38.3734 0.503481 33.9556 0.333814C33.9556 0.333814 15.4938 -2.37901 18.3085 16.856C18.3085 16.856 26.374 43.3609 42.396 58.3653L45.8461 61.3861L47.3938 61.4101C47.3938 61.4101 20.667 31.6779 22.4364 15.4784C22.4364 15.4784 22.1538 3.35277 36.7777 3.76588C36.7777 3.76588 46.2358 4.10152 55.341 7.30306H55.3392Z" fill="#585958"/>
<path id="Vector_2" d="M55.5904 6.53586C55.5904 6.53586 42.8005 0.0774639 30.3873 0.0774639C30.3873 0.0774639 14.1936 -1.77227 14.1936 12.7066C14.1936 12.7066 12.2432 30.1583 45.7444 64.8532L45.6262 62.3064L48.0623 62.2861C48.0623 62.2861 20.981 34.4128 20.209 15.3198C20.209 15.3198 19.8008 2.38456 34.8846 2.38456C34.8846 2.38456 38.2515 1.30755 55.5904 6.53586Z" fill="#B8B8B9"/>
</g>
<g id="Group_3">
<g id="Group_4">
<path id="Vector_3" d="M51.3923 68.49L54.9384 83.583L64.4925 79.2638L61.8791 66.6458L51.3923 68.49Z" fill="#1B2954"/>
<path id="Vector_4" d="M54.7242 84.0201L51.0211 68.2429L62.1211 66.2862L64.8527 79.4538L54.7242 84.0182V84.0201ZM51.7654 68.7427L55.1564 83.1441L64.1416 79.0942L61.6243 66.9981L51.7636 68.7408L51.7654 68.7427Z" fill="#1B2954"/>
</g>
<g id="Group_5">
<path id="Vector_5" d="M44.9133 71.2618L51.3923 68.49L54.9384 83.583H47.5396L44.9133 71.2618Z" fill="#134A78"/>
<path id="Vector_6" d="M55.3318 83.8873H47.2885L44.5643 71.0793L51.6103 68.0658L55.3318 83.8873ZM47.789 83.2694H54.5524L51.1762 68.9216L45.2698 71.4444L47.7908 83.2694H47.789Z" fill="#134A78"/>
</g>
</g>
<g id="Group_6">
<path id="Vector_7" d="M69.4182 85.5858H75.2766C75.2766 85.5858 111.352 115.1 139.014 115.1C139.014 115.1 163.681 116.644 147.441 84.4036C147.441 84.4036 159.88 97.6505 156.999 116.128C156.999 116.128 155.359 122.59 142.298 122.59C142.298 122.59 114.339 122.088 69.4182 85.5839V85.5858Z" fill="#DFDFDD"/>
<path id="Vector_8" d="M68.5889 85.63C68.5889 85.63 69.0728 86.0376 69.9686 86.7661C77.7626 93.0788 117.061 123.729 145.28 123.827C145.28 123.827 160.503 125.773 160.503 110.682C160.503 110.682 161.934 100.736 147.441 81.7314C147.441 81.7314 157.407 98.3698 157.407 108.323C157.407 108.323 158.746 121.157 142.606 121.157C142.606 121.157 115.054 123.108 70.4451 85.5341L68.5871 85.63H68.5889Z" fill="#585958"/>
</g>
</g>
<g id="Group_7">
<path id="Vector_9" d="M72.8848 74.9097L74.8721 73.7054C75.1732 75.6179 76.3238 76.5676 78.3074 76.5676C79.2641 76.5676 80.0527 76.3039 80.664 75.7801C81.2864 75.2564 81.5893 74.5814 81.5893 73.7663C81.5893 72.6413 80.9097 71.5237 79.5485 70.4117L78.1393 69.2812C77.0034 68.348 76.2481 67.614 75.8639 67.0774C75.4834 66.5259 75.2895 65.9303 75.2895 65.2516C75.2895 63.9791 75.7956 62.9316 76.8169 62.098C77.8383 61.2773 79.1145 60.8605 80.6622 60.8605C81.9033 60.8605 83.0613 61.1556 84.1695 61.7458L83.4954 63.2912L83.1943 63.9717C83.0244 64.3701 82.8212 64.5766 82.5922 64.5766C82.4869 64.5766 82.3835 64.5453 82.2709 64.4604C82.402 64.0566 82.4777 63.7357 82.4777 63.4904C82.4777 62.9943 82.197 62.5775 81.654 62.2455C81.1018 61.9062 80.4276 61.7458 79.6131 61.7458C77.7939 61.7458 76.8779 62.5037 76.8779 64.0123C76.8779 64.5526 77.0773 65.0764 77.491 65.578C77.8937 66.0741 78.7469 66.8524 80.0305 67.8962L81.1553 68.8275C82.6033 69.9875 83.3125 71.2102 83.3125 72.4846C83.3125 73.9083 82.7104 75.0794 81.521 76.0162C80.3353 76.9549 78.8411 77.4252 77.0589 77.4252C74.8869 77.4252 73.5017 76.5824 72.8848 74.9078V74.9097Z" fill="#BC242B"/>
<path id="Vector_10" d="M87.0322 77.2592C85.2813 77.2592 84.4133 76.1066 84.4133 73.7921C84.4133 71.9313 85.0892 70.1424 86.4633 68.4236C87.8319 66.6938 89.2411 65.838 90.7131 65.838C92.4843 65.838 93.3616 66.9907 93.3616 69.2959C93.3616 71.1623 92.6819 72.9567 91.3152 74.6865C89.9559 76.4016 88.5227 77.261 87.034 77.261L87.0322 77.2592ZM88.4432 75.959C89.3261 75.959 90.0778 75.4722 90.6817 74.4763C91.2838 73.4804 91.5812 72.2411 91.5812 70.7658C91.5812 68.348 90.8313 67.1345 89.3242 67.1345C88.4414 67.1345 87.6934 67.6435 87.0931 68.6302C86.4947 69.6242 86.1919 70.8653 86.1919 72.337C86.1919 74.7511 86.9343 75.959 88.4414 75.959H88.4432Z" fill="#BC242B"/>
<path id="Vector_11" d="M98.2079 73.5431C98.4258 73.6482 98.5403 73.7866 98.5403 73.9618C98.5403 74.5261 98.1229 75.2048 97.2844 76.0254C96.4441 76.8535 95.7497 77.261 95.1827 77.261C94.5473 77.261 94.2186 76.8037 94.2186 75.876C94.2186 75.297 94.2573 74.729 94.3201 74.1425L94.455 73.0987L95.3489 65.0045C95.637 62.5443 96.4773 60.4917 97.8958 58.8393C99.3068 57.1814 100.936 56.3607 102.785 56.3607C103.244 56.3607 103.618 56.4013 103.93 56.4769L102.277 58.1662C101.913 58.0371 101.488 57.9762 101 57.9762C99.8387 57.9762 98.9633 58.3838 98.3871 59.21C97.8145 60.0214 97.4137 61.4064 97.1976 63.3631L96.1153 73.0931C96.0304 73.8493 95.9898 74.3749 95.9898 74.7105C95.9898 75.4095 96.1061 75.7451 96.3499 75.7451C96.6325 75.7451 96.9705 75.5256 97.3583 75.0664C97.7443 74.6165 98.0269 74.0927 98.2079 73.5431Z" fill="#BC242B"/>
<path id="Vector_12" d="M107.075 72.3905C106.183 73.7478 105.189 74.9005 104.076 75.8465C102.967 76.7908 102.055 77.261 101.368 77.261C100.596 77.261 100.212 76.752 100.212 75.7267C100.212 75.356 100.265 74.729 100.369 73.8585L100.784 70.0447C100.784 70.0004 100.805 69.7791 100.838 69.3771L100.91 68.6228C100.932 68.4015 100.945 68.2005 100.945 68.0161C100.945 67.5679 100.808 67.3448 100.559 67.3448C99.9661 67.3448 99.3327 67.9958 98.6511 69.3236C98.5034 69.2093 98.4369 69.0783 98.4369 68.9548C98.4369 68.4642 98.8543 67.8298 99.7205 67.0239C100.576 66.2327 101.257 65.8399 101.761 65.8399C102.404 65.8399 102.731 66.277 102.731 67.1603C102.731 67.3669 102.709 67.614 102.681 67.8888L102.578 68.7869L102.478 69.7607L102.114 73.0913C102.049 73.6593 102.02 74.231 102.02 74.8119C102.02 75.3523 102.218 75.616 102.609 75.616C103.481 75.616 104.467 74.8894 105.572 73.4472C106.674 72.0106 107.324 70.585 107.531 69.1705L107.936 66.4153L109.821 65.7809C109.605 66.6735 109.446 67.4702 109.324 68.1783L108.628 73.036C108.586 73.3274 108.558 73.5745 108.536 73.7792L108.451 74.4173C108.407 74.8101 108.381 75.0923 108.381 75.2546C108.381 75.592 108.473 75.7414 108.665 75.7414C109.315 75.7414 109.993 75.0222 110.68 73.58C110.885 73.6999 110.99 73.8308 110.99 73.947C110.99 74.2126 110.647 74.764 109.971 75.592C109.066 76.7041 108.227 77.2592 107.444 77.2592C106.879 77.2592 106.595 76.8848 106.595 76.125C106.595 75.8908 106.622 75.5607 106.68 75.1568L106.807 74.2292C106.883 73.7239 106.933 73.3808 106.951 73.2075L107.071 72.3887L107.075 72.3905Z" fill="#BC242B"/>
<path id="Vector_13" d="M114.461 67.4905L113.89 72.6284C113.788 73.5487 113.744 74.231 113.744 74.6662C113.744 75.5478 114.045 75.983 114.64 75.983C115.283 75.983 115.944 75.4556 116.633 74.4007C116.755 74.5501 116.816 74.6865 116.816 74.7935C116.816 75.2324 116.428 75.7433 115.659 76.3611C114.898 76.9549 114.234 77.261 113.685 77.261C112.584 77.261 112.034 76.5547 112.034 75.1494C112.034 74.6294 112.102 73.7866 112.228 72.6284L112.784 67.4905H110.351L111.701 66.1368H112.935L113.183 64.0252L114.902 63.4572L114.612 66.1387H119.555L118.19 67.4923H114.463L114.461 67.4905Z" fill="#BC242B"/>
<path id="Vector_14" d="M123.703 73.58C123.917 73.6999 124.02 73.8234 124.02 73.9304C124.02 74.2126 123.681 74.764 123.006 75.592C122.1 76.7041 121.256 77.2592 120.484 77.2592C119.915 77.2592 119.627 76.8848 119.627 76.1361C119.627 75.8226 119.747 74.847 119.979 73.2093L120.43 70.041L120.55 69.2461L120.644 68.6099C120.685 68.3462 120.707 68.1083 120.707 67.9275C120.707 67.5402 120.589 67.3429 120.382 67.3429C119.78 67.3429 119.121 68.005 118.433 69.3328C118.284 69.2019 118.21 69.0691 118.21 68.9437C118.21 68.4642 118.648 67.8279 119.523 67.0239C120.386 66.2327 121.089 65.8399 121.61 65.8399C122.196 65.8399 122.486 66.2382 122.486 67.0442C122.486 67.2064 122.454 67.5126 122.393 67.9976L122.286 68.7703C122.277 68.8293 122.236 69.1521 122.155 69.7109L121.682 73.0378L121.564 73.781C121.472 74.5132 121.414 75.0019 121.414 75.2564C121.414 75.5939 121.514 75.7433 121.704 75.7433C122.351 75.7433 123.018 75.024 123.703 73.5819V73.58ZM121.377 64.3313L122.351 61.9265C123.23 61.5779 123.937 61.08 124.499 60.453C124.571 60.5618 124.615 60.6761 124.615 60.7905C124.615 61.8288 123.544 63.0072 121.377 64.3313Z" fill="#BC242B"/>
<path id="Vector_15" d="M126.504 77.2592C124.759 77.2592 123.886 76.1066 123.886 73.7921C123.886 71.9313 124.567 70.1424 125.939 68.4236C127.302 66.6938 128.719 65.838 130.189 65.838C131.951 65.838 132.843 66.9907 132.843 69.2959C132.843 71.1623 132.149 72.9567 130.787 74.6865C129.428 76.4016 128 77.261 126.506 77.261L126.504 77.2592ZM127.916 75.959C128.811 75.959 129.554 75.4722 130.16 74.4763C130.756 73.4804 131.061 72.2411 131.061 70.7658C131.061 68.348 130.304 67.1345 128.806 67.1345C127.917 67.1345 127.169 67.6435 126.567 68.6302C125.973 69.6242 125.672 70.8653 125.672 72.337C125.672 74.7511 126.421 75.959 127.916 75.959Z" fill="#BC242B"/>
<path id="Vector_16" d="M136.105 76.5529L134.367 77.2592L134.396 76.9291L134.487 76.0807L134.583 75.2638L135.185 69.8768L135.263 69.248C135.307 68.7685 135.329 68.3849 135.329 68.0861C135.329 67.5882 135.203 67.3429 134.954 67.3429C134.369 67.3429 133.75 67.9939 133.085 69.3217C132.902 69.1724 132.817 69.0488 132.817 68.9437C132.817 68.4753 133.24 67.8408 134.09 67.0386C134.941 66.2364 135.613 65.838 136.096 65.838C136.764 65.838 137.1 66.2585 137.1 67.1142C137.1 67.3245 137.076 67.6251 137.045 67.9865L136.945 68.9308L136.851 69.7182L136.762 70.5463C137.675 69.1761 138.676 68.0511 139.767 67.1622C140.861 66.2788 141.79 65.8417 142.552 65.8417C143.315 65.8417 143.69 66.3618 143.69 67.4001C143.69 67.7265 143.648 68.1949 143.559 68.8293L142.924 73.1577C142.802 74.0318 142.733 74.7142 142.733 75.2213C142.733 75.6234 142.844 75.8244 143.062 75.8244C143.594 75.8244 144.257 75.1199 145.044 73.6962C145.234 73.8087 145.325 73.9304 145.325 74.054C145.325 74.5482 144.896 75.2213 144.024 76.0383C143.158 76.8553 142.451 77.261 141.911 77.261C141.302 77.261 141.008 76.835 141.008 75.959C141.008 75.3338 141.08 74.4449 141.239 73.3237L141.655 70.5131C141.788 69.5965 141.86 68.8754 141.86 68.3332C141.86 67.7265 141.631 67.4204 141.211 67.4204C140.222 67.4204 139.219 68.088 138.195 69.4342C137.172 70.7731 136.587 72.2245 136.408 73.7663L136.103 76.5547L136.105 76.5529Z" fill="#BC242B"/>
<path id="Vector_17" d="M144.488 76.6322L146.093 75.3136C146.702 75.9646 147.463 76.2891 148.381 76.2891C149.5 76.2891 150.056 75.7414 150.056 74.6644C150.056 74.065 149.545 73.237 148.514 72.1655L147.851 71.4813C146.88 70.4688 146.392 69.6482 146.392 69.0082C146.392 68.123 146.782 67.3632 147.563 66.7509C148.346 66.1368 149.301 65.8362 150.442 65.8362C151.072 65.8362 151.743 65.945 152.483 66.1792L151.081 67.4665C150.494 67.022 149.835 66.8062 149.116 66.8062C148.267 66.8062 147.849 67.1566 147.849 67.863C147.849 68.372 148.309 69.106 149.255 70.0871L149.981 70.8524C151.05 71.9774 151.582 72.8718 151.582 73.5468C151.582 74.5279 151.118 75.3892 150.18 76.1379C149.24 76.883 148.156 77.2573 146.928 77.2573C146.056 77.2573 145.247 77.0526 144.488 76.6303V76.6322Z" fill="#BC242B"/>
</g>
<g id="Group_8">
<path id="Vector_18" d="M64.1748 45.2881C62.8265 46.627 61.277 47.6063 59.515 48.1927C57.7494 48.7884 56.0133 49.0853 54.3012 49.0853C52.3988 49.0853 50.5889 48.7331 48.8842 48.0378C47.1813 47.337 45.6871 46.3706 44.4054 45.1387C43.1199 43.916 42.1023 42.4702 41.3487 40.803C40.597 39.1377 40.2203 37.3451 40.2203 35.4105C40.2203 33.476 40.597 31.7074 41.3487 30.0126C42.1023 28.2975 43.1199 26.8055 44.4054 25.5293C45.6871 24.2494 47.1813 23.2222 48.8842 22.4753C50.5889 21.721 52.3988 21.3503 54.3012 21.3503C56.2035 21.3503 58.019 21.7339 59.672 22.514C61.3268 23.296 62.8284 24.3527 64.1766 25.7045L59.2601 30.6119C58.49 29.7783 57.6829 29.1845 56.8388 28.8562C55.9874 28.5243 55.1489 28.3565 54.2993 28.3565C53.3482 28.3565 52.4413 28.5556 51.577 28.9282C50.72 29.3136 49.972 29.8245 49.3403 30.4607C48.7069 31.0933 48.1934 31.8457 47.8111 32.6996C47.4306 33.5571 47.2367 34.4589 47.2367 35.4087C47.2367 36.3585 47.4306 37.264 47.8111 38.14C48.1934 39.0196 48.7069 39.7868 49.3403 40.4415C49.972 41.1036 50.72 41.631 51.577 42.0312C52.4413 42.4296 53.3482 42.6288 54.2993 42.6288C55.1489 42.6288 55.9874 42.3835 56.8388 41.9095C57.681 41.4411 58.49 40.9229 59.2601 40.3604L64.1766 45.2844L64.1748 45.2881Z" fill="#2B2F67"/>
<path id="Vector_19" d="M78.3794 21.354C80.2818 21.354 82.0936 21.7303 83.8094 22.4938C85.527 23.2591 87.0433 24.2992 88.338 25.5883C89.6327 26.883 90.6596 28.3897 91.4242 30.1066C92.1999 31.8254 92.5785 33.6401 92.5785 35.5378V49.089H85.431V47.5085C84.332 48.0046 83.2294 48.3937 82.1416 48.6777C81.0593 48.9452 79.8034 49.089 78.3794 49.089C76.4771 49.089 74.6967 48.7368 73.0622 48.0415C71.4239 47.3407 69.9815 46.3743 68.7551 45.1424C67.5196 43.9197 66.5647 42.4812 65.8666 40.8436C65.1592 39.2078 64.8083 37.4355 64.8083 35.536C64.8083 33.6364 65.1592 31.8254 65.8666 30.1048C66.5647 28.3897 67.5214 26.8811 68.7551 25.5865C69.9815 24.2974 71.4221 23.2591 73.0622 22.4919C74.6967 21.7284 76.4771 21.3522 78.3794 21.3522V21.354ZM78.3794 28.48C77.419 28.48 76.5528 28.6663 75.7568 29.0351C74.9608 29.404 74.2793 29.913 73.6975 30.564C73.1176 31.2113 72.6577 31.9637 72.3326 32.8213C71.9983 33.6844 71.834 34.5899 71.834 35.536C71.834 36.482 72.0002 37.3802 72.3326 38.2285C72.6577 39.0768 73.1176 39.8127 73.6975 40.4471C74.2793 41.0852 74.9626 41.5849 75.7568 41.9556C76.5528 42.3263 77.4172 42.5052 78.3794 42.5052C79.3417 42.5052 80.2337 42.3263 81.0926 41.9556C81.9514 41.5849 82.7086 41.0852 83.355 40.4471C84.0014 39.8127 84.513 39.0768 84.8787 38.2285C85.25 37.3802 85.4328 36.4839 85.4328 35.536C85.4328 34.588 85.25 33.6825 84.8787 32.8213C84.513 31.9637 84.0033 31.2113 83.355 30.564C82.7086 29.913 81.9514 29.404 81.0926 29.0351C80.2356 28.6663 79.3269 28.48 78.3794 28.48Z" fill="#2B2F67"/>
<path id="Vector_20" d="M100.24 35.4935C100.24 33.5885 100.596 31.7867 101.311 30.09C102.024 28.3804 102.999 26.8811 104.229 25.5865C105.461 24.2974 106.907 23.2591 108.575 22.4919C110.242 21.7284 112.021 21.3522 113.927 21.3522V28.397C112.978 28.397 112.095 28.5944 111.295 28.9798C110.488 29.3634 109.79 29.8798 109.204 30.5308C108.625 31.2039 108.166 31.9527 107.841 32.7973C107.507 33.6438 107.339 34.5419 107.339 35.4935C107.339 37.3986 106.964 39.1764 106.203 40.8233C105.459 42.4738 104.43 43.9197 103.139 45.1424C101.835 46.3743 100.341 47.3407 98.6327 48.0415C96.9262 48.7368 95.1217 49.089 93.2157 49.089V42.5439C94.165 42.5439 95.0792 42.3687 95.9362 41.9962C96.795 41.6237 97.5412 41.122 98.1821 40.471C98.8063 39.8237 99.3161 39.0713 99.6799 38.2137C100.057 37.3599 100.238 36.4507 100.238 35.4954L100.24 35.4935Z" fill="#2B2F67"/>
<path id="Vector_21" d="M114.573 35.4935C114.573 33.5885 114.924 31.7867 115.628 30.0679C116.35 28.3546 117.336 26.8553 118.592 25.5717C119.85 24.2845 121.341 23.2609 123.082 22.4956C124.807 21.7321 126.693 21.3559 128.736 21.3559C130.634 21.3559 132.415 21.7321 134.064 22.4956C135.721 23.2609 137.169 24.2863 138.395 25.5717C139.621 26.8553 140.591 28.3565 141.289 30.0679C141.995 31.7867 142.344 33.5903 142.344 35.4935V38.7025H122.144C122.644 39.8938 123.516 40.8233 124.743 41.502C125.973 42.1751 127.302 42.5052 128.736 42.5052C130.398 42.5052 132.029 41.7933 133.613 40.3659L137.978 45.3231C137.429 45.9834 136.783 46.5495 136.055 47.0327C135.325 47.5085 134.561 47.8884 133.737 48.1946C132.915 48.4989 132.071 48.722 131.214 48.8695C130.359 49.0171 129.526 49.089 128.736 49.089C126.693 49.089 124.807 48.7368 123.082 48.0415C121.341 47.3407 119.848 46.3743 118.592 45.1424C117.336 43.9197 116.35 42.4738 115.628 40.8233C114.924 39.1764 114.573 37.3986 114.573 35.4935ZM134.725 31.7314C134.009 30.706 133.107 29.8816 132.029 29.2712C130.943 28.6645 129.842 28.3602 128.736 28.3602C125.904 28.3602 123.703 29.4851 122.144 31.7314H134.725Z" fill="#2B2F67"/>
</g>
</g>
</svg>
