<svg width="225" height="58" viewBox="0 0 225 58" fill="none" xmlns="http://www.w3.org/2000/svg">
<g clip-path="url(#clip0_45_4)">
<path d="M22.7175 0H12.9904V58H22.7175V0Z" fill="#F26921"/>
<path d="M10.0558 6.08508H0.563446V51.9384H10.0558V6.08508Z" fill="#F26921"/>
<path d="M197.845 22.0848H210.601C212.534 22.0848 214.279 22.312 215.828 22.7583C217.378 23.2126 218.693 23.8469 219.773 24.6614C220.852 25.4759 221.682 26.4626 222.261 27.6139C222.84 28.7651 223.13 30.0338 223.13 31.4278C223.13 32.3832 222.997 33.2839 222.715 34.1218C222.441 34.9598 222.05 35.7351 221.533 36.44C221.017 37.1448 220.391 37.7791 219.655 38.3352C218.92 38.8912 218.082 39.3611 217.151 39.7448L225.008 50.5601H215.234L208.848 40.9117H206.054V50.5601H197.853V22.0848H197.845ZM210.03 34.4351C210.781 34.4351 211.446 34.3724 212.033 34.2471C212.62 34.1218 213.121 33.9339 213.528 33.6833C213.943 33.4327 214.248 33.1272 214.467 32.767C214.686 32.3989 214.788 31.9838 214.788 31.5218C214.788 31.0284 214.67 30.5977 214.443 30.2296C214.216 29.8615 213.888 29.5482 213.465 29.2976C213.043 29.047 212.542 28.8591 211.963 28.7416C211.376 28.6163 210.734 28.5536 210.038 28.5536H206.054V34.4429H210.038L210.03 34.4351Z" fill="#1D3867"/>
<path d="M138.285 51.3542L138.292 23.8156H156.08V26.3921H142.753V34.7796H153.873V37.2701H142.753V46.4486H157.559V48.986H138.285V51.3542Z" fill="#1D3867" stroke="#1D3867" stroke-width="4" stroke-miterlimit="10"/>
<path d="M90.5259 44.9763H79.6718L77.6372 50.6306H69.3421L80.6813 22.1866H89.8372L101.325 50.6306H92.6075L90.5337 44.9763H90.5259ZM88.2252 38.7267L85.048 30.026L81.9178 38.7267H88.2252Z" fill="#1D3867"/>
<path d="M115.059 39.0478L123.26 22.1709H134.232L119.207 50.6305H110.348L95.3856 22.1709H106.889L115.059 39.0478Z" fill="#1D3867"/>
<path d="M161.871 22.1239H170.425V32.9235H182.194V22.1239H190.755V50.5992H182.194V39.5411H170.425V50.5992H161.871V22.1239Z" fill="#1D3867"/>
<path d="M10.6271 27.2222C10.6271 30.1591 8.24812 32.5398 5.31354 32.5398C2.37896 32.5398 0 30.1591 0 27.2222C0 24.2854 2.37896 21.9047 5.31354 21.9047C8.24812 21.9047 10.6271 24.2854 10.6271 27.2222Z" fill="white"/>
<path d="M23.1714 27.2222C23.1714 30.1591 20.7925 32.5398 17.8579 32.5398C14.9233 32.5398 12.5443 30.1591 12.5443 27.2222C12.5443 24.2854 14.9233 21.9047 17.8579 21.9047C20.7925 21.9047 23.1714 24.2854 23.1714 27.2222Z" fill="white"/>
<path d="M36.4044 6.08508H26.912V51.9384H36.4044V6.08508Z" fill="#F26921"/>
<path d="M46.1551 40.5828C48.3932 41.9298 51.9694 43.2847 55.6083 43.2847C59.5211 43.2847 61.5948 41.4208 61.5948 38.5858C61.5948 35.7508 59.8028 34.3411 55.2718 32.5399C49.0035 29.9633 44.8638 25.9771 44.8638 19.6727C44.8638 12.272 50.2869 6.6803 59.1298 6.6803C63.4338 6.6803 66.5171 7.64357 68.7552 8.86528L66.8536 16.7124C65.3981 15.8745 62.6591 14.6528 59.0202 14.6528C55.3814 14.6528 53.5424 16.6419 53.5424 18.8348C53.5424 21.5993 55.6083 22.821 60.5306 24.9433C67.1901 27.7705 70.2655 31.7646 70.2655 37.8731C70.2655 45.1407 65.4528 51.3198 55.1075 51.3198C50.8034 51.3198 44.7543 49.0643 42.6257 47.7173L46.1551 40.5828Z" fill="#1D3867"/>
<path d="M36.8661 27.2222C36.8661 30.1591 34.4872 32.5398 31.5526 32.5398C28.618 32.5398 26.239 30.1591 26.239 27.2222C26.239 24.2854 28.618 21.9047 31.5526 21.9047C34.4872 21.9047 36.8661 24.2854 36.8661 27.2222Z" fill="white"/>
</g>
<defs>
<clipPath id="clip0_45_4">
<rect width="225" height="58" fill="white"/>
</clipPath>
</defs>
</svg>
