<svg width="60" height="49" viewBox="0 0 60 49" fill="none" xmlns="http://www.w3.org/2000/svg">
<path d="M39.4587 33.9635C40.0957 33.5028 40.421 32.7303 40.2855 31.9443L39.0115 24.477C38.9844 24.2737 39.0387 24.0841 39.1877 23.9351L44.609 18.6497C45.1782 18.0941 45.3814 17.2809 45.1374 16.5355C44.8935 15.7766 44.2565 15.2481 43.4704 15.1262L35.9755 14.0419C35.7722 14.0148 35.6096 13.8929 35.5147 13.7031L32.1671 6.9135C31.8148 6.20878 31.11 5.7616 30.3104 5.7616C29.5243 5.7616 28.806 6.20878 28.4536 6.9135L25.106 13.7031C25.0111 13.8793 24.8484 14.0013 24.6451 14.0419L17.1503 15.1262C16.3643 15.2346 15.7271 15.7766 15.4832 16.5355C15.2392 17.2944 15.4425 18.0941 16.0118 18.6497L21.433 23.9351C21.5821 24.0706 21.6363 24.2737 21.6092 24.477L20.3353 31.9443C20.1998 32.7303 20.5115 33.5028 21.162 33.9635C21.5279 34.221 21.9481 34.3566 22.3683 34.3566C22.6935 34.3566 23.0323 34.2754 23.3305 34.1127L30.0394 30.5891C30.2156 30.4942 30.4323 30.4942 30.6085 30.5891L37.3174 34.1127C38.0222 34.4787 38.8489 34.4244 39.4859 33.9501L39.4587 33.9635ZM30.2968 29.0712C29.9715 29.0712 29.6328 29.1526 29.3346 29.3152L22.6257 32.8388C22.3275 33.0014 22.0836 32.8658 21.9887 32.7981C21.8939 32.7303 21.6905 32.5406 21.7447 32.2018L23.0188 24.7346C23.1272 24.0705 22.9103 23.3794 22.4224 22.9051L17.0011 17.6197C16.7572 17.3758 16.8114 17.1048 16.852 16.9964C16.8927 16.888 17.0011 16.6304 17.3399 16.5762L24.8349 15.4921C25.5125 15.3972 26.0953 14.977 26.3935 14.3672L29.7411 7.57754C29.8902 7.26584 30.1748 7.23873 30.2832 7.23873C30.3917 7.23873 30.6763 7.26584 30.8254 7.57754L34.173 14.3672C34.4711 14.977 35.054 15.3972 35.7316 15.4921L43.2265 16.5762C43.5654 16.6304 43.6873 16.888 43.7144 16.9964C43.7415 17.1048 43.8093 17.3758 43.5654 17.6197L38.1441 22.9051C37.6562 23.3794 37.4393 24.057 37.5477 24.7346L38.8218 32.2018C38.876 32.5406 38.6726 32.7303 38.5777 32.7981C38.4829 32.8658 38.239 33.0014 37.9408 32.8388L31.2319 29.3152C30.9337 29.1526 30.5949 29.0712 30.2697 29.0712H30.2968Z" fill="#2B2F67"/>
<path d="M59.5444 19.4493C59.4902 19.1918 59.3004 18.9884 59.0565 18.9071C58.9616 18.88 58.8804 18.853 58.7855 18.8259C59.9782 16.7389 60.0865 14.1775 59.0158 11.9956C58.9074 11.7652 58.677 11.6027 58.406 11.5891C58.162 11.5756 57.9316 11.5756 57.6876 11.5891C58.0535 9.38011 57.3759 7.08975 55.8308 5.43639C55.736 3.45777 54.8279 1.58751 53.3235 0.286504C53.1202 0.110327 52.8491 0.0697032 52.6052 0.151016C50.1656 1.0048 48.3359 3.11902 47.8616 5.65327C47.4279 7.88937 48.092 10.1932 49.61 11.8872C49.5964 13.4999 50.1114 15.0719 51.0872 16.3593C50.4909 17.9856 50.4909 19.7882 51.1008 21.4144C49.8946 22.9729 49.3796 24.9786 49.6642 26.9436C47.9701 28.2853 46.9671 30.3045 46.9129 32.4728C45.4085 33.4622 44.3107 34.98 43.8635 36.7418C42.1151 37.3517 40.6378 38.612 39.784 40.2789C38.388 40.5228 37.0733 41.1869 36.0297 42.1762C35.84 42.3524 35.7586 42.6235 35.8264 42.881C36.4363 45.4017 38.3609 47.4074 40.8411 48.1392C41.5053 48.3289 42.1965 48.4373 42.8741 48.4373C44.7173 48.4373 46.5334 47.7326 47.9023 46.4316C48.092 46.2554 48.1734 45.9844 48.1056 45.7269C47.9701 45.1848 47.7803 44.6562 47.5227 44.1684C49.6099 43.6805 51.3584 42.3118 52.3477 40.3603C52.4697 40.1299 52.4561 39.8453 52.307 39.6284C52.158 39.398 51.9818 39.1812 51.8056 38.9644C53.9063 38.0157 55.465 36.0914 55.9394 33.7875C55.9936 33.53 55.8986 33.2725 55.7089 33.0964C55.5734 32.9744 55.4243 32.8524 55.2753 32.744C57.0372 31.3346 58.0671 29.1526 57.9993 26.8622C57.9993 26.6047 57.8503 26.3609 57.6199 26.2389C57.5928 26.2389 57.5656 26.2117 57.5521 26.1982C59.314 24.45 60.0729 21.9022 59.5308 19.4764L59.5444 19.4493ZM57.2947 18.4464C57.2947 18.4464 57.2268 18.5412 57.1997 18.5819C55.4107 18.5006 53.6487 19.0699 52.2528 20.2083C51.9546 18.975 52.063 17.674 52.578 16.5085C52.7136 16.1968 52.8764 15.8851 53.0797 15.6005C53.9606 14.2859 55.3023 13.4051 56.8609 13.1205C57.1861 13.0527 57.525 13.0256 57.8638 13.0256C58.5686 14.8009 58.3654 16.8337 57.2947 18.4328V18.4464ZM49.2847 5.91068C49.6507 4.02693 50.9247 2.42777 52.6866 1.66885C53.6217 2.60395 54.2045 3.82371 54.3536 5.12471C52.2393 5.91074 50.5858 7.65892 49.9217 9.82727C49.2711 8.64823 49.0408 7.2659 49.2983 5.92424L49.2847 5.91068ZM51.0601 11.6296C51.0736 11.2773 51.1279 10.9115 51.2227 10.5456C51.6835 8.67537 53.0525 7.15755 54.8415 6.49349C56.1155 7.91647 56.6169 9.90865 56.1561 11.7653C56.1561 11.7653 56.1561 11.7787 56.1561 11.7923C54.4077 12.2259 52.8899 13.2696 51.8734 14.7874C51.8734 14.801 51.8463 14.8279 51.8327 14.8415C51.277 13.8657 51.0059 12.7545 51.0601 11.6296ZM52.4832 22.0106C52.6323 21.848 52.7813 21.699 52.9304 21.5499C54.1638 20.4251 55.8038 19.883 57.4709 20.0592C57.7148 20.0863 57.9587 20.1269 58.2026 20.1811C58.4737 22.0784 57.7825 24.0029 56.373 25.3039C56.2646 25.3987 56.1561 25.4936 56.0477 25.5884C54.3807 25.1547 52.6052 25.3173 51.0601 26.0627C51.0059 24.5855 51.521 23.1355 52.4968 22.0106H52.4832ZM41.2612 46.7162C39.418 46.1741 37.9542 44.7376 37.3579 42.9217C38.2795 42.1627 39.4316 41.7018 40.6243 41.607C41.3155 41.5528 42.0067 41.6341 42.6844 41.8239C43.9312 42.1898 45.002 42.9351 45.7609 43.9922C46.1269 44.4936 46.3979 45.0358 46.5877 45.605C45.1104 46.8111 43.1044 47.2311 41.2612 46.689V46.7162ZM46.6825 42.8131C45.7608 41.6748 44.5275 40.8616 43.1044 40.4415C42.603 40.2924 42.0881 40.1976 41.5595 40.1705C42.3456 39.0999 43.4705 38.3274 44.758 37.9751C45.1375 37.8802 45.5305 37.8125 45.9236 37.7853C47.4415 37.704 48.9052 38.192 50.0572 39.1948C50.3553 39.4523 50.6265 39.7369 50.8705 40.0486C49.9624 41.5665 48.4444 42.5692 46.696 42.8131H46.6825ZM50.6807 37.826C49.2983 36.7554 47.5905 36.2269 45.8286 36.3218C45.7202 36.3218 45.6253 36.3352 45.5169 36.3487C46.0048 35.1426 46.8722 34.1262 48.0106 33.4757C48.0106 33.4757 48.0242 33.4757 48.0378 33.4621C48.363 33.2724 48.7019 33.1234 49.0678 33.0014C50.5858 32.4864 52.2121 32.622 53.6352 33.3809C53.9198 33.53 54.1775 33.7062 54.435 33.8959C53.92 35.739 52.5104 37.2162 50.6807 37.826ZM53.9334 31.9038C52.2528 31.1313 50.3825 31.0363 48.6071 31.6191C48.5529 31.6326 48.4986 31.6598 48.4444 31.6733C48.6884 30.1284 49.5558 28.7325 50.8705 27.8246C50.9518 27.7703 51.033 27.7161 51.1144 27.6619C52.5645 26.7675 54.313 26.5506 55.9394 27.0656C56.1426 27.1333 56.3459 27.2011 56.5356 27.296C56.4543 29.1526 55.4786 30.8738 53.92 31.9038H53.9334Z" fill="#2B2F67"/>
<path d="M20.8095 40.2517C19.9421 38.5848 18.4784 37.3244 16.73 36.7146C16.2828 34.9528 15.185 33.4349 13.6806 32.4456C13.6264 30.2773 12.6234 28.2581 10.9292 26.9164C11.2139 24.9649 10.6989 22.9592 9.4927 21.3872C10.1026 19.7609 10.1026 17.9585 9.50626 16.3323C10.4956 15.0448 11.0106 13.4727 10.9835 11.86C12.5015 10.1795 13.1521 7.8757 12.7319 5.62604C12.244 3.07824 10.4279 0.977576 7.98832 0.123791C7.74436 0.0424781 7.47326 0.0966536 7.26996 0.259279C5.75201 1.56028 4.85754 3.43055 4.76267 5.40916C3.23116 7.06252 2.53996 9.35289 2.9059 11.5619C2.66194 11.5619 2.4315 11.5619 2.18754 11.5619C1.93003 11.5754 1.69969 11.738 1.57772 11.9684C0.507019 14.1502 0.615338 16.7252 1.80801 18.7987C1.71314 18.8258 1.61834 18.853 1.53702 18.8801C1.29306 18.9614 1.10334 19.1645 1.04912 19.422C0.520552 21.8614 1.27947 24.3958 3.02783 26.144C3.00072 26.144 2.97355 26.171 2.96 26.1845C2.72959 26.3065 2.58063 26.5506 2.58063 26.808C2.51287 29.0984 3.54292 31.2802 5.30483 32.6896C5.15574 32.798 5.00656 32.92 4.87103 33.042C4.68129 33.2182 4.58636 33.4757 4.64057 33.7332C5.11493 36.0235 6.66005 37.9478 8.77434 38.91C8.59815 39.1269 8.43552 39.3437 8.27288 39.5741C8.1238 39.7909 8.1102 40.0755 8.23218 40.3059C9.22156 42.2574 10.9835 43.6263 13.0572 44.1142C12.7997 44.6156 12.6098 45.1304 12.4743 45.6725C12.4066 45.93 12.4879 46.1875 12.6776 46.3773C14.0465 47.6783 15.8626 48.383 17.7058 48.383C18.3835 48.383 19.0747 48.2881 19.7388 48.0848C22.219 47.353 24.1436 45.3473 24.7535 42.8266C24.8213 42.5691 24.7399 42.3116 24.5502 42.1219C23.5066 41.1326 22.1919 40.4686 20.796 40.2247L20.8095 40.2517ZM7.90692 1.66876C9.65527 2.42768 10.9428 4.02683 11.3088 5.91058C11.5663 7.2658 11.3359 8.63457 10.6854 9.81361C10.0213 7.64526 8.38132 5.91063 6.25348 5.11105C6.40256 3.81005 6.98532 2.59029 7.92049 1.65519L7.90692 1.66876ZM5.75202 6.4934C7.54103 7.15745 8.90996 8.68883 9.37076 10.5455C9.46564 10.8978 9.50629 11.2636 9.53339 11.6295C9.60116 12.7679 9.33001 13.8792 8.76077 14.8414C8.76077 14.8278 8.73363 14.8009 8.72008 14.7873C7.70359 13.2695 6.18576 12.2258 4.43741 11.7922C4.43741 11.7922 4.43741 11.7788 4.43741 11.7652C3.9766 9.90856 4.47803 7.91637 5.75202 6.4934ZM2.71613 13.0255C3.05496 13.0255 3.39378 13.0662 3.71905 13.1204C5.27766 13.405 6.61947 14.2858 7.50043 15.6004C7.69017 15.885 7.86635 16.1968 8.00188 16.5085C8.5169 17.6739 8.62532 18.9749 8.32715 20.2082C6.93117 19.0698 5.16924 18.5005 3.38022 18.5818C3.35312 18.5411 3.31236 18.487 3.28526 18.4463C2.21456 16.8472 2.01137 14.8144 2.71613 13.039V13.0255ZM2.40444 20.181C2.64839 20.1268 2.89224 20.0862 3.13619 20.0591C4.78967 19.8829 6.44328 20.425 7.66306 21.5498C7.81214 21.6853 7.97472 21.8479 8.11025 22.0105C9.09963 23.1218 9.60101 24.5854 9.5468 26.0626C8.00174 25.3172 6.22637 25.1546 4.55934 25.5883C4.45091 25.4935 4.3425 25.4122 4.23408 25.3038C2.811 24.0028 2.13337 22.0783 2.40444 20.181ZM4.04431 27.2959C4.23406 27.2146 4.43727 27.1332 4.64057 27.0655C6.26695 26.5505 8.01538 26.7674 9.46556 27.6618C9.54688 27.716 9.62827 27.7702 9.70959 27.8245C11.0242 28.7324 11.8915 30.1283 12.1355 31.6732C12.0813 31.6597 12.0271 31.6325 11.9729 31.619C10.1974 31.0227 8.32716 31.1312 6.64657 31.9037C5.08796 30.8873 4.11206 29.1525 4.03075 27.2959H4.04431ZM6.15851 33.8958C6.41602 33.7061 6.67365 33.5299 6.95827 33.3808C8.38135 32.6354 9.99416 32.4999 11.5257 33.0013C11.878 33.1233 12.2304 33.2723 12.5421 33.462C12.5421 33.462 12.5557 33.462 12.5693 33.4756C13.7077 34.1261 14.5887 35.1425 15.063 36.3486C14.9546 36.3486 14.8597 36.3352 14.7513 36.3217C12.9894 36.2268 11.2952 36.7553 9.89919 37.8259C8.06952 37.2161 6.67368 35.7253 6.14511 33.8958H6.15851ZM9.73656 40.0485C9.98052 39.7368 10.2517 39.4522 10.5499 39.1947C11.7019 38.2054 13.1655 37.7039 14.6835 37.7852C15.0765 37.8124 15.4695 37.8666 15.849 37.975C17.1366 38.3138 18.2615 39.0998 19.0476 40.1704C18.5325 40.2111 18.0041 40.2923 17.5026 40.4414C16.0796 40.8615 14.8462 41.6747 13.9246 42.813C12.1762 42.5691 10.6582 41.5664 9.75013 40.0485H9.73656ZM19.3323 46.7161C17.4891 47.2582 15.4831 46.8381 14.0058 45.632C14.1956 45.0493 14.4666 44.5071 14.8325 44.0192C15.5915 42.9621 16.6622 42.2168 17.9091 41.8509C18.5868 41.6476 19.278 41.5798 19.9692 41.634C21.1619 41.7153 22.314 42.1761 23.2356 42.9485C22.6392 44.7645 21.1891 46.2011 19.3323 46.7432V46.7161Z" fill="#2B2F67"/>
</svg>
