<svg width="68" height="58" viewBox="0 0 68 58" fill="none" xmlns="http://www.w3.org/2000/svg">
<path d="M9.54748 37.9054H1.30707C0.90048 37.9054 0.575317 38.2306 0.575317 38.6372V56.3499C0.575317 56.7564 0.90048 57.0817 1.30707 57.0817H9.54748C9.95408 57.0817 10.2792 56.7564 10.2792 56.3499V38.6372C10.2792 38.2306 9.95408 37.9054 9.54748 37.9054ZM8.81556 55.618H2.02543V39.369H8.81556V55.618Z" fill="#2B2F67"/>
<path d="M23.9003 27.3754H15.6601C15.2535 27.3754 14.9282 27.7006 14.9282 28.1072V56.3498C14.9282 56.7564 15.2535 57.0817 15.6601 57.0817H23.9003C24.3069 57.0817 24.6322 56.7564 24.6322 56.3498V28.1072C24.6322 27.7006 24.3069 27.3754 23.9003 27.3754ZM23.1684 55.618H16.3783V28.8254H23.1684V55.618Z" fill="#2B2F67"/>
<path d="M38.253 31.197H30.0128C29.6062 31.197 29.2809 31.5223 29.2809 31.9288V56.3498C29.2809 56.7564 29.6062 57.0816 30.0128 57.0816H38.253C38.6596 57.0816 38.985 56.7564 38.985 56.3498V31.9288C38.985 31.5223 38.6596 31.197 38.253 31.197ZM37.5213 55.618H30.7312V32.6607H37.5213V55.618Z" fill="#2B2F67"/>
<path d="M52.6059 24.2719H44.3655C43.9589 24.2719 43.6338 24.5971 43.6338 25.0037V56.3498C43.6338 56.7563 43.9589 57.0816 44.3655 57.0816H52.6059C53.0125 57.0816 53.3377 56.7563 53.3377 56.3498V25.0037C53.3377 24.5971 53.0125 24.2719 52.6059 24.2719ZM51.874 55.618H45.0839V25.7355H51.874V55.618Z" fill="#2B2F67"/>
<path d="M66.9586 10.2455H58.7182C58.3116 10.2455 57.9865 10.5707 57.9865 10.9773V56.3499C57.9865 56.7564 58.3116 57.0817 58.7182 57.0817H66.9586C67.3652 57.0817 67.6906 56.7564 67.6906 56.3499V10.9773C67.6906 10.5707 67.3652 10.2455 66.9586 10.2455ZM66.2403 55.6181H59.4502V11.7091H66.2403V55.6181Z" fill="#2B2F67"/>
<path d="M5.57636 34.7748C7.48735 34.7748 9.0596 33.2163 9.0596 31.2919C9.0596 30.8176 8.96463 30.3568 8.78844 29.9502L17.2727 24.0551C17.9097 24.814 18.8719 25.3019 19.9426 25.3019C21.3251 25.3019 22.5314 24.4887 23.0871 23.3097L30.8258 25.6136C30.8258 25.6136 30.8258 25.7355 30.8258 25.7897C30.8258 27.7006 32.3845 29.2726 34.3091 29.2726C36.2336 29.2726 37.7922 27.7141 37.7922 25.7897C37.7922 25.4916 37.7516 25.2205 37.6838 24.9495L45.9647 21.2498C46.6017 22.0358 47.5776 22.5508 48.6754 22.5508C50.5864 22.5508 52.1584 20.9923 52.1584 19.0679C52.1584 18.3361 51.9281 17.6449 51.5351 17.0757L61.3204 6.66766C61.7541 6.85739 62.2285 6.9658 62.73 6.9658C64.6409 6.9658 66.213 5.4073 66.213 3.4829C66.213 1.5585 64.6545 0 62.73 0C60.8054 0 59.2467 1.5585 59.2467 3.4829C59.2467 4.36379 59.5856 5.17692 60.1277 5.78677L50.4643 16.0728C49.9357 15.7611 49.3395 15.5714 48.6754 15.5714C46.7644 15.5714 45.1921 17.1299 45.1921 19.0543C45.1921 19.3525 45.2329 19.6506 45.3142 19.9217L37.0467 23.6078C36.4097 22.8083 35.4203 22.2797 34.3225 22.2797C32.9807 22.2797 31.8153 23.0522 31.2325 24.1635L23.4395 21.8461C23.4395 21.8461 23.4395 21.8054 23.4395 21.7783C23.4395 19.8674 21.8807 18.2954 19.9562 18.2954C18.0317 18.2954 16.4731 19.8539 16.4731 21.7783C16.4731 22.1035 16.5137 22.4017 16.5951 22.6998L7.96172 28.7034C7.33828 28.1207 6.51154 27.7683 5.58992 27.7683C3.67893 27.7683 2.10684 29.3268 2.10684 31.2512C2.10684 33.1756 3.66538 34.7341 5.58992 34.7341L5.57636 34.7748ZM62.6893 1.49073C63.8006 1.49073 64.7087 2.39873 64.7087 3.51001C64.7087 4.62128 63.8006 5.52928 62.6893 5.52928C61.5779 5.52928 60.6698 4.62128 60.6698 3.51001C60.6698 2.39873 61.5779 1.49073 62.6893 1.49073ZM48.6347 17.0621C49.746 17.0621 50.6541 17.9701 50.6541 19.0814C50.6541 20.1927 49.746 21.1007 48.6347 21.1007C47.5233 21.1007 46.6153 20.1927 46.6153 19.0814C46.6153 17.9701 47.5233 17.0621 48.6347 17.0621ZM34.282 23.784C35.3933 23.784 36.3014 24.692 36.3014 25.8033C36.3014 26.9146 35.3933 27.8225 34.282 27.8225C33.1706 27.8225 32.2626 26.9146 32.2626 25.8033C32.2626 24.692 33.1706 23.784 34.282 23.784ZM19.9291 19.8132C21.0404 19.8132 21.9486 20.7212 21.9486 21.8325C21.9486 22.9438 21.0404 23.8518 19.9291 23.8518C18.8177 23.8518 17.9097 22.9438 17.9097 21.8325C17.9097 20.7212 18.8177 19.8132 19.9291 19.8132ZM5.57636 29.2862C6.26757 29.2862 6.86386 29.625 7.2298 30.1535C7.4602 30.4788 7.59576 30.8718 7.59576 31.3055C7.59576 32.4167 6.68771 33.3247 5.57636 33.3247C4.465 33.3247 3.55695 32.4167 3.55695 31.3055C3.55695 30.1942 4.465 29.2862 5.57636 29.2862Z" fill="#2B2F67"/>
</svg>
