<svg width="40" height="40" viewBox="0 0 40 40" fill="none" xmlns="http://www.w3.org/2000/svg">
<path d="M1.01324 39.9495C0.749796 39.9495 0.491403 39.8456 0.298888 39.6531C0.0303798 39.3871 -0.0658753 38.9919 0.048114 38.6322L2.8548 29.7005C0.985379 26.6406 0 23.1373 0 19.5378C0 8.76451 8.76454 0 19.5378 0C30.3111 0 39.0755 8.76451 39.0755 19.5378C39.0755 30.311 30.3111 39.0755 19.5378 39.0755C16.4474 39.0755 13.3824 38.3384 10.6466 36.9376L1.31973 39.8988C1.21841 39.9317 1.1171 39.9469 1.01324 39.9469V39.9495ZM19.5378 2.02901C9.88164 2.02901 2.02648 9.88414 2.02648 19.5403C2.02648 22.9093 2.98905 26.1846 4.81288 29.0115C4.975 29.2649 5.01805 29.5764 4.92686 29.8652L2.56352 37.3834L10.4363 34.8833C10.6972 34.7997 10.9835 34.8275 11.2242 34.9567C13.7623 36.3271 16.6349 37.0516 19.5378 37.0516C29.194 37.0516 37.0491 29.1965 37.0491 19.5403C37.0491 9.88414 29.194 2.02901 19.5378 2.02901Z" fill="#2B2F67"/>
<path d="M25.9339 29.2927H13.1392C12.5794 29.2927 12.126 28.8393 12.126 28.2795V22.6813C12.126 21.2147 13.3191 20.019 14.7883 20.019H24.2848C25.7515 20.019 26.9471 21.2121 26.9471 22.6813V28.2795C26.9471 28.8393 26.4937 29.2927 25.9339 29.2927ZM14.1525 27.2662H24.9206V22.6813C24.9206 22.3318 24.6369 22.0455 24.2848 22.0455H14.7883C14.4387 22.0455 14.1525 22.3318 14.1525 22.6813V27.2662Z" fill="#2B2F67"/>
<path d="M19.7583 19.7506C17.4659 19.7506 15.6016 17.6861 15.6016 15.1504C15.6016 12.6148 17.4659 10.5504 19.7583 10.5504C22.0508 10.5504 23.9151 12.6148 23.9151 15.1504C23.9151 17.6861 22.0508 19.7506 19.7583 19.7506ZM19.7583 12.5794C18.583 12.5794 17.628 13.7345 17.628 15.153C17.628 16.5715 18.583 17.7266 19.7583 17.7266C20.9337 17.7266 21.8887 16.5715 21.8887 15.153C21.8887 13.7345 20.9337 12.5794 19.7583 12.5794Z" fill="#2B2F67"/>
</svg>
