<svg width="40" height="41" viewBox="0 0 40 41" fill="none" xmlns="http://www.w3.org/2000/svg">
<path d="M1.01324 40.8484C0.749796 40.8484 0.491434 40.7445 0.298919 40.552C0.0304108 40.286 -0.0658444 39.8909 0.0481449 39.5312L2.8548 30.5995C0.985379 27.5395 0 24.0362 0 20.4367C0 9.66344 8.76451 0.898926 19.5378 0.898926C30.311 0.898926 39.0755 9.66344 39.0755 20.4367C39.0755 31.2099 30.311 39.9745 19.5378 39.9745C16.4474 39.9745 13.3824 39.2373 10.6466 37.8365L1.31973 40.7977C1.21841 40.8306 1.11456 40.8459 1.01324 40.8459V40.8484ZM19.5403 2.92794C9.88414 2.92794 2.02901 10.7831 2.02901 20.4392C2.02901 23.8082 2.99159 27.0835 4.81542 29.9105C4.97754 30.1638 5.02059 30.4754 4.92939 30.7641L2.56603 38.2824L10.4389 35.7822C10.6998 35.6986 10.986 35.7265 11.2267 35.8556C13.7648 37.226 16.6374 37.9505 19.5403 37.9505C29.1965 37.9505 37.0516 30.0954 37.0516 20.4392C37.0516 10.7831 29.1965 2.92794 19.5403 2.92794Z" fill="#2B2F67"/>
<path d="M19.5402 24.8848C17.3288 24.8848 15.5303 23.0863 15.5303 20.8749C15.5303 18.6635 17.3288 16.865 19.5402 16.865C21.7515 16.865 23.55 18.6635 23.55 20.8749C23.55 23.0863 21.7515 24.8848 19.5402 24.8848ZM19.5402 18.8915C18.4459 18.8915 17.5567 19.7806 17.5567 20.8749C17.5567 21.9692 18.4459 22.8583 19.5402 22.8583C20.6344 22.8583 21.5236 21.9692 21.5236 20.8749C21.5236 19.7806 20.6344 18.8915 19.5402 18.8915Z" fill="#2B2F67"/>
<path d="M19.5402 30.6603C14.1447 30.6603 9.75488 26.2704 9.75488 20.8749C9.75488 15.4795 14.1447 11.0896 19.5402 11.0896C24.9357 11.0896 29.3256 15.4795 29.3256 20.8749C29.3256 22.5443 28.8975 24.1933 28.0869 25.6422C28.0514 25.7081 28.0058 25.7689 27.9577 25.8246C27.8133 25.9842 26.5113 27.3825 24.8699 27.2052C24.1986 27.1342 23.2385 26.7619 22.4685 25.4066C20.0316 21.265 22.5698 16.5535 22.6787 16.3534C22.9472 15.8619 23.5653 15.6846 24.0542 15.9531C24.5431 16.2217 24.723 16.8372 24.4544 17.3261C24.4342 17.3641 22.3672 21.2397 24.2214 24.3909C24.4215 24.7405 24.7255 25.1508 25.0852 25.1888C25.5639 25.242 26.1516 24.7607 26.3796 24.5403C26.9825 23.4182 27.2991 22.1542 27.2991 20.8724C27.2991 16.594 23.8186 13.1135 19.5402 13.1135C15.2618 13.1135 11.7814 16.594 11.7814 20.8724C11.7814 25.1508 15.2618 28.6313 19.5402 28.6313C20.1 28.6313 20.5535 29.0847 20.5535 29.6445C20.5535 30.2043 20.1 30.6578 19.5402 30.6578V30.6603Z" fill="#2B2F67"/>
</svg>
