<svg version="1.2" xmlns="http://www.w3.org/2000/svg" viewBox="0 0 24 24" width="24" height="24">
	<title>facebook</title>
	<defs>
		<clipPath clipPathUnits="userSpaceOnUse" id="cp1">
			<path d="m-4-3h31v30h-31z"/>
		</clipPath>
	</defs>
	<style>
		.s0 { fill: #2b2f67 } 
	</style>
	<g id="Clip-Path" clip-path="url(#cp1)">
		<g>
			<path fill-rule="evenodd" class="s0" d="m3.7-0.2h16.6c2.1 0 3.8 1.7 3.7 3.8v16.8c0 2.1-1.6 3.8-3.7 3.8h-16.6c-2 0-3.7-1.7-3.7-3.9v-16.7c0-2.1 1.7-3.8 3.7-3.8zm9.7 10.3v-1.9c0-0.9 0.4-1.6 1.7-1.6h1.2v-2.5c0 0-1.1-0.2-2.2-0.2-2.3 0-3.8 1.4-3.8 3.9v2.3h-2.6v2.9h2.6v7.1h3.1v-7.1h2.4l0.4-2.9z"/>
		</g>
	</g>
</svg>