<svg width="148" height="125" viewBox="0 0 148 125" fill="none" xmlns="http://www.w3.org/2000/svg">
<path d="M105.871 7.3593C105.871 7.3593 122.944 0.506464 127.39 0.335469C127.39 0.335469 145.969 -2.39861 143.137 16.9871C143.137 16.9871 135.02 43.6996 118.896 58.8216L115.424 61.8661L113.867 61.8902C113.867 61.8902 140.763 31.9251 138.983 15.5987C138.983 15.5987 139.267 3.37808 124.55 3.79442C124.55 3.79442 115.032 4.13269 105.869 7.3593H105.871Z" fill="#585958"/>
<path d="M105.618 6.5862C105.618 6.5862 118.489 0.0772095 130.981 0.0772095C130.981 0.0772095 147.278 -1.78702 147.278 12.8052C147.278 12.8052 149.24 30.3936 115.526 65.3604L115.645 62.7936L113.194 62.7732C113.194 62.7732 140.447 34.6815 141.224 15.4389C141.224 15.4389 141.635 2.40238 126.455 2.40238C126.455 2.40238 123.067 1.31693 105.618 6.5862Z" fill="#B8B8B9"/>
<path d="M109.843 69.0256L106.274 84.2368L96.6592 79.8839L99.2892 67.167L109.843 69.0256Z" fill="#1B2954"/>
<path d="M106.49 84.6775L110.216 68.7767L99.0458 66.8047L96.2968 80.0754L106.49 84.6756V84.6775ZM109.467 69.2804L106.055 83.7946L97.0124 79.713L99.5457 67.5221L109.469 69.2785L109.467 69.2804Z" fill="#1B2954"/>
<path d="M116.363 71.8194L109.843 69.0259L106.274 84.2371H113.72L116.363 71.8194Z" fill="#134A78"/>
<path d="M105.878 84.5435H113.973L116.714 71.6352L109.623 68.5981L105.878 84.5435ZM113.469 83.9209H106.663L110.06 69.4606L116.004 72.0032L113.467 83.9209H113.469Z" fill="#134A78"/>
<path d="M91.7023 86.2554H85.8066C85.8066 86.2554 49.5016 116.001 21.6646 116.001C21.6646 116.001 -3.15948 117.557 13.1836 85.064C13.1836 85.064 0.665611 98.4146 3.56511 117.036C3.56511 117.036 5.21558 123.549 18.36 123.549C18.36 123.549 46.4962 123.044 91.7023 86.2535V86.2554Z" fill="#DFDFDD"/>
<path d="M92.5368 86.2998C92.5368 86.2998 92.0498 86.7106 91.1484 87.4447C83.3049 93.8069 43.7565 124.698 15.3582 124.796C15.3582 124.796 0.0392227 126.757 0.0392227 111.548C0.0392227 111.548 -1.40122 101.524 13.1836 82.3706C13.1836 82.3706 3.15432 99.1393 3.15432 109.17C3.15432 109.17 1.8068 122.105 18.0495 122.105C18.0495 122.105 45.7769 124.071 90.6688 86.2031L92.5386 86.2998H92.5368Z" fill="#585958"/>
</svg>
