<svg width="40" height="41" viewBox="0 0 40 41" fill="none" xmlns="http://www.w3.org/2000/svg">
<path d="M1.01324 40.6702C0.749796 40.6702 0.491403 40.5663 0.298888 40.3738C0.0303798 40.1078 -0.0658753 39.7126 0.048114 39.3529L2.8548 30.4212C0.985379 27.3613 0 23.858 0 20.2585C0 9.48522 8.76448 0.720703 19.5377 0.720703C30.311 0.720703 39.0755 9.48522 39.0755 20.2585C39.0755 31.0317 30.311 39.7962 19.5377 39.7962C16.4474 39.7962 13.3823 39.0591 10.6465 37.6583L1.31973 40.6195C1.21841 40.6524 1.1171 40.6676 1.01324 40.6676V40.6702ZM19.5403 2.74972C9.88411 2.74972 2.02901 10.6048 2.02901 20.261C2.02901 23.63 2.99159 26.9053 4.81542 29.7323C4.97754 29.9856 5.02059 30.2971 4.92939 30.5859L2.566 38.1041L10.4389 35.604C10.6998 35.5204 10.986 35.5482 11.2266 35.6774C13.7648 37.0478 16.6373 37.7723 19.5403 37.7723C29.1964 37.7723 37.0516 29.9172 37.0516 20.261C37.0516 10.6048 29.1964 2.74972 19.5403 2.74972Z" fill="#2B2F67"/>
<path d="M29.1693 30.102H8.79058C8.23077 30.102 7.77734 29.6486 7.77734 29.0887V12.1981C7.77734 11.6382 8.23077 11.1848 8.79058 11.1848H29.1693C29.7291 11.1848 30.1826 11.6382 30.1826 12.1981V29.0887C30.1826 29.6486 29.7291 30.102 29.1693 30.102ZM9.80636 28.0755H28.1586V13.2113H9.80636V28.0755Z" fill="#2B2F67"/>
<path d="M18.9798 23.7795C18.7037 23.7795 18.4402 23.668 18.2503 23.4704L8.06216 12.8998C7.6746 12.4971 7.68476 11.8562 8.08752 11.4661C8.49028 11.0785 9.13113 11.0887 9.52123 11.4914L18.9798 21.3046L28.4384 11.4914C28.8285 11.0887 29.4694 11.076 29.8721 11.4661C30.2749 11.8537 30.2875 12.4971 29.8974 12.8998L19.7093 23.4704C19.5194 23.668 19.2559 23.7795 18.9798 23.7795Z" fill="#2B2F67"/>
</svg>
