<svg width="39" height="41" viewBox="0 0 39 41" fill="none" xmlns="http://www.w3.org/2000/svg">
<path d="M1.01128 40.7206C0.748347 40.7206 0.490453 40.617 0.29831 40.4248C0.0303211 40.1594 -0.065748 39.765 0.048021 39.406L2.84929 30.4915C0.983474 27.4375 0 23.941 0 20.3484C0 9.59596 8.7476 0.848389 19.5 0.848389C30.2525 0.848389 39 9.59596 39 20.3484C39 31.1008 30.2525 39.8484 19.5 39.8484C16.4156 39.8484 13.3565 39.1127 10.626 37.7146L1.31718 40.6701C1.21605 40.7029 1.11494 40.7181 1.01128 40.7181V40.7206ZM19.5026 2.87348C9.86507 2.87348 2.02509 10.7134 2.02509 20.3509C2.02509 23.7134 2.98581 26.9824 4.80611 29.8039C4.96791 30.0567 5.01088 30.3676 4.91987 30.6559L2.5611 38.1596L10.4187 35.6642C10.6791 35.5808 10.9648 35.6086 11.205 35.7375C13.7383 37.1053 16.6052 37.8284 19.5026 37.8284C29.1401 37.8284 36.98 29.9884 36.98 20.3509C36.98 10.7134 29.1401 2.87348 19.5026 2.87348Z" fill="#2B2F67"/>
<path d="M13.4615 32.0484H13.1373C11.4277 32.0484 9.88448 31.2102 8.60849 29.6107L8.60847 29.6107C7.41054 28.1085 6.86383 26.4484 6.83917 26.373L6.83908 26.3727C6.71748 25.9989 6.88735 25.5955 7.23716 25.419L7.23723 25.419L13.454 22.2869L13.4542 22.2868C13.7576 22.1345 14.1237 22.1894 14.3671 22.4261L13.4615 32.0484ZM13.4615 32.0484L13.4551 32.0357C13.8756 32.0103 14.3039 31.9349 14.7374 31.8103L14.7376 31.8102C17.5236 31.0056 21.0228 28.8516 23.879 26.1958C26.3484 23.8999 29.4574 20.2027 30.1082 15.6989C30.3783 13.9385 30.053 12.4151 29.1222 11.1907C28.3013 10.1096 27.168 9.48069 26.2351 9.1205C25.301 8.7598 24.5527 8.6627 24.4841 8.65414L24.483 8.654C24.1497 8.61444 23.8276 8.78651 23.6762 9.08444L23.6761 9.08463L20.6638 15.0293L20.6637 15.0297C20.4967 15.3608 20.5801 15.7622 20.865 15.9987L23.0791 17.8396C22.3981 19.1481 20.3169 22.5653 16.4148 24.4145L14.3672 22.4262L13.4615 32.0484ZM8.59953 26.5148L13.6647 23.9622L15.6928 25.9312C15.9234 26.1552 16.2653 26.2188 16.5599 26.0937C22.368 23.6294 24.7019 18.1735 24.8019 17.9335L24.6173 17.8566M8.59953 26.5148L13.7019 23.7196L15.8322 25.7878C16.005 25.9557 16.2613 26.0032 16.4817 25.9096C22.2143 23.4774 24.5219 18.0854 24.6173 17.8566M8.59953 26.5148C8.9009 27.2128 9.47751 28.3341 10.3587 29.2034C11.31 30.1417 12.6014 30.7756 14.2975 30.2863C16.4847 29.6551 19.7853 27.7838 22.6741 25.1414C25.5636 22.4982 28.0087 19.113 28.5355 15.4685L28.5358 15.4668C28.7427 14.1176 28.5072 13.0124 27.8605 12.159L27.8604 12.1589C27.0074 11.0325 25.6047 10.5382 24.8257 10.3436L22.3724 15.1853L24.5764 17.0175L24.4489 17.1716M8.59953 26.5148L22.1219 15.2371L24.4489 17.1716M24.6173 17.8566C24.7186 17.6159 24.6501 17.338 24.4489 17.1716M24.6173 17.8566L24.8016 17.9342C24.9372 17.6121 24.8454 17.2403 24.5767 17.0177L24.5768 17.0178L24.4489 17.1716" fill="#2B2F67" stroke="#2B2F67" stroke-width="0.4"/>
</svg>
