<svg width="67" height="51" viewBox="0 0 67 51" fill="none" xmlns="http://www.w3.org/2000/svg">
<path d="M45.2834 24.3136H44.687C43.5485 24.3136 42.6271 25.2352 42.6271 26.3736C42.6271 27.5119 43.5485 28.4335 44.687 28.4335H45.2834C46.4219 28.4335 47.3435 27.5119 47.3435 26.3736C47.3435 25.2352 46.4219 24.3136 45.2834 24.3136Z" fill="#2B2F67"/>
<path d="M51.1926 7.88833C49.8509 6.68219 48.1025 6.07239 45.934 6.07239C43.7655 6.07239 42.1392 6.56021 40.7432 7.53596C40.1333 7.95608 39.6319 8.44388 39.2253 8.98597C38.3714 10.1379 38.8864 11.7778 40.2418 12.2521L40.3366 12.2792C41.2446 12.6045 42.2341 12.2522 42.7898 11.4797C42.9659 11.2357 43.1556 11.0323 43.386 10.8426C43.9959 10.3547 44.7549 10.1245 45.6494 10.1245C46.422 10.1245 47.086 10.3547 47.6553 10.829C48.211 11.3034 48.4956 11.9404 48.4956 12.7671C48.4956 13.1059 48.4414 13.4175 48.3465 13.7292C48.2516 14.0274 48.089 14.3255 47.8586 14.6101C47.6282 14.8947 47.4248 15.1116 47.2486 15.2742C47.0724 15.4233 46.8286 15.6672 46.4897 15.9789C46.1509 16.2906 45.9205 16.4938 45.8121 16.5887C44.7414 17.5373 43.9417 18.4183 43.3996 19.2315C43.3996 19.2315 43.3996 19.245 43.386 19.2586C42.5728 20.5189 43.5079 22.1993 45.0123 22.1993H45.7578C46.5303 22.1993 47.2216 21.7386 47.5198 21.0338C47.5469 20.9525 47.5875 20.8849 47.6281 20.8036C47.8585 20.3699 48.089 20.0309 48.3465 19.8006C48.604 19.5702 48.997 19.2179 49.512 18.7572C50.0406 18.2964 50.4201 17.9576 50.6505 17.7408C51.5314 16.887 52.182 16.0602 52.5886 15.2742C52.9952 14.4882 53.1985 13.4583 53.1985 12.1709C53.1985 10.5175 52.5208 9.0809 51.1791 7.87476L51.1926 7.88833Z" fill="#2B2F67"/>
<path d="M60.761 0.976807H31.2017C27.9896 0.976807 25.3602 3.59228 25.3602 6.8177V12.5638C24.276 12.4418 23.1783 12.3605 22.0805 12.3605C10.357 12.3605 0.829102 19.6651 0.829102 28.6502C0.829102 33.285 3.39073 37.676 7.86326 40.7659L7.09064 49.7645C7.06353 50.0356 7.19905 50.2931 7.4159 50.4421C7.53788 50.5234 7.67346 50.5641 7.809 50.5641C7.93097 50.5641 8.05296 50.5369 8.16139 50.4691L18.4346 44.7094C19.6273 44.8721 20.8471 44.9534 22.0805 44.9534C26.9189 44.9534 31.6489 43.6795 35.4031 41.3621C38.9676 39.1667 41.5156 36.131 42.654 32.7565H47.8721L58.6468 42.0397C58.7823 42.1617 58.9449 42.2159 59.1211 42.2159C59.2295 42.2159 59.3244 42.1889 59.4192 42.1482C59.6768 42.0263 59.8395 41.7686 59.8395 41.484V32.7565H60.734C63.9461 32.7565 66.5753 30.1409 66.5753 26.9155V6.8177C66.5753 3.60584 63.9597 0.976807 60.734 0.976807H60.761ZM22.0805 43.4763C20.8471 43.4763 19.6003 43.3949 18.3941 43.2187C18.2314 43.1916 18.0687 43.2188 17.9331 43.3001L8.64928 48.5041L9.3405 40.4542C9.36761 40.1832 9.23209 39.9257 9.01524 39.7766C4.73246 36.9578 2.27938 32.892 2.27938 28.6366C2.27938 20.4647 11.1567 13.8106 22.0805 13.8106C23.1783 13.8106 24.2895 13.8784 25.3602 14.014V26.8885C25.3602 30.1004 27.9761 32.7294 31.2017 32.7294H41.109C38.6965 39.004 30.89 43.4627 22.0805 43.4627V43.4763ZM65.1388 26.9021C65.1388 29.3143 63.1734 31.2794 60.761 31.2794H59.1347C58.7281 31.2794 58.4028 31.6045 58.4028 32.0111V39.885L48.631 31.4691C48.4955 31.3607 48.3329 31.2929 48.1567 31.2929H31.2017C28.7892 31.2929 26.8241 29.3277 26.8241 26.9155V6.8177C26.8241 4.40541 28.7892 2.44038 31.2017 2.44038H60.761C63.1734 2.44038 65.1388 4.40541 65.1388 6.8177V26.9155V26.9021Z" fill="#2B2F67"/>
</svg>
