<svg width="61" height="64" viewBox="0 0 61 64" fill="none" xmlns="http://www.w3.org/2000/svg">
<path d="M7.0605 16.2151C6.13889 16.2151 5.40689 16.9605 5.40689 17.8685C5.40689 18.7764 6.15244 19.5218 7.0605 19.5218C7.96856 19.5218 8.71394 18.7764 8.71394 17.8685C8.71394 16.9605 7.96856 16.2151 7.0605 16.2151Z" fill="#2B2F67"/>
<path d="M7.0605 32.6267C6.13889 32.6267 5.40689 33.3721 5.40689 34.2801C5.40689 35.1881 6.15244 35.9334 7.0605 35.9334C7.96856 35.9334 8.71394 35.1881 8.71394 34.2801C8.71394 33.3721 7.96856 32.6267 7.0605 32.6267Z" fill="#2B2F67"/>
<path d="M7.0605 49.0249C6.13889 49.0249 5.40689 49.7703 5.40689 50.6783C5.40689 51.5863 6.15244 52.3316 7.0605 52.3316C7.96856 52.3316 8.71394 51.5863 8.71394 50.6783C8.71394 49.7703 7.96856 49.0249 7.0605 49.0249Z" fill="#2B2F67"/>
<path d="M11.4381 16.2151C10.5165 16.2151 9.7845 16.9605 9.7845 17.8685C9.7845 18.7764 10.53 19.5218 11.4381 19.5218C12.3462 19.5218 13.0915 18.7764 13.0915 17.8685C13.0915 16.9605 12.3462 16.2151 11.4381 16.2151Z" fill="#2B2F67"/>
<path d="M11.4381 32.6267C10.5165 32.6267 9.7845 33.3721 9.7845 34.2801C9.7845 35.1881 10.53 35.9334 11.4381 35.9334C12.3462 35.9334 13.0915 35.1881 13.0915 34.2801C13.0915 33.3721 12.3462 32.6267 11.4381 32.6267Z" fill="#2B2F67"/>
<path d="M11.4381 49.0249C10.5165 49.0249 9.7845 49.7703 9.7845 50.6783C9.7845 51.5863 10.53 52.3316 11.4381 52.3316C12.3462 52.3316 13.0915 51.5863 13.0915 50.6783C13.0915 49.7703 12.3462 49.0249 11.4381 49.0249Z" fill="#2B2F67"/>
<path d="M33.8413 52.3316C34.763 52.3316 35.4949 51.5863 35.4949 50.6783C35.4949 49.7703 34.7494 49.0249 33.8413 49.0249C32.9333 49.0249 32.1879 49.7703 32.1879 50.6783C32.1879 51.5863 32.9333 52.3316 33.8413 52.3316Z" fill="#2B2F67"/>
<path d="M60.4462 16.947C60.3785 16.6082 60.0804 16.3507 59.7281 16.3507H56.5295C56.15 14.9819 55.6078 13.6673 54.9031 12.4341L57.1529 10.1844C57.3969 9.94049 57.4375 9.54747 57.2477 9.26287C55.7298 7.01322 53.8189 5.10238 51.569 3.58454C51.2844 3.39481 50.8913 3.42191 50.6474 3.6794L48.3977 5.92906C47.1643 5.22435 45.8497 4.68226 44.4808 4.3028V1.1045C44.4808 0.752142 44.2367 0.453997 43.8844 0.386236C41.2551 -0.128745 38.4903 -0.128745 35.861 0.386236C35.5222 0.453997 35.2646 0.752142 35.2646 1.1045V4.3028C33.8957 4.68226 32.5811 5.22435 31.3477 5.92906L29.0979 3.6794C28.8539 3.43546 28.4609 3.39481 28.1763 3.58454C25.9265 5.10238 24.0154 7.01322 22.4975 9.26287C22.3077 9.54747 22.3349 9.94049 22.5925 10.1844L24.2595 11.8513H1.42247C1.01588 11.8513 0.690552 12.1766 0.690552 12.5832V23.3571C0.690552 23.7637 1.01588 24.0889 1.42247 24.0889H19.1499C19.1906 24.3871 19.2448 24.6852 19.299 24.9834C19.3396 25.1731 19.448 25.3357 19.6107 25.4441V28.1546H1.42247C1.01588 28.1546 0.690552 28.4798 0.690552 28.8864V39.6603C0.690552 40.0669 1.01588 40.3921 1.42247 40.3921H19.6107V44.4714H1.42247C1.01588 44.4714 0.690552 44.7966 0.690552 45.2032V55.9771C0.690552 56.3837 1.01588 56.7089 1.42247 56.7089H19.6107V62.5364H12.7393C12.3327 62.5364 12.0074 62.8616 12.0074 63.2682C12.0074 63.6747 12.3327 64 12.7393 64H27.9459C28.3525 64 28.6778 63.6747 28.6778 63.2682C28.6778 62.8616 28.3525 62.5364 27.9459 62.5364H21.0745V56.7089H39.2627C39.6693 56.7089 39.9946 56.3837 39.9946 55.9771V45.2032C39.9946 44.7966 39.6693 44.4714 39.2627 44.4714H21.0745V40.3921H35.2782V40.8258C35.2782 41.1782 35.522 41.4763 35.8744 41.5441C37.1891 41.8016 38.5445 41.9235 39.8863 41.9235C41.228 41.9235 42.5833 41.788 43.8979 41.5441C44.2368 41.4763 44.4944 41.1782 44.4944 40.8258V37.6275C45.8632 37.2481 47.1777 36.706 48.4111 36.0013L50.6609 38.2509C50.9049 38.4949 51.298 38.5355 51.5826 38.3458C53.8324 36.8279 55.7433 34.9171 57.2613 32.6674C57.451 32.3828 57.424 31.9898 57.1665 31.7459L54.9166 29.4962C55.6214 28.263 56.1634 26.9484 56.5429 25.5797H59.7416C60.094 25.5797 60.392 25.3357 60.4598 24.9834C60.7173 23.6688 60.8393 22.3136 60.8393 20.9719C60.8393 19.6303 60.7038 18.2751 60.4598 16.9605L60.4462 16.947ZM38.5309 55.2182H2.15423V45.9079H20.1935C20.1935 45.9079 20.3019 45.9214 20.3562 45.9214C20.4104 45.9214 20.4646 45.9214 20.5188 45.9079H38.5581V55.2182H38.5309ZM2.15423 22.6117V13.3014H24.3814C23.8935 14.2772 23.514 15.2936 23.2158 16.3507H20.0173C19.6649 16.3507 19.3667 16.5946 19.299 16.947C19.0415 18.2615 18.9196 19.6167 18.9196 20.9584C18.9196 21.514 18.9466 22.0697 18.9873 22.6117H2.15423ZM21.0745 25.5661H23.2158C23.4598 26.447 23.7716 27.3143 24.1647 28.1546H21.0881V25.5661H21.0745ZM2.15423 38.915V29.6047H24.7202L22.5789 31.7459C22.3349 31.9898 22.2942 32.3828 22.4839 32.6674C24.0019 34.9171 25.9129 36.8279 28.1628 38.3458C28.4474 38.5355 28.8405 38.5084 29.0845 38.2509L31.3342 36.0013C32.5675 36.706 33.8822 37.2481 35.251 37.6275V38.9285H2.12726L2.15423 38.915ZM59.1181 24.1025H55.9738C55.635 24.1025 55.3368 24.3329 55.269 24.6581C54.876 26.2708 54.2525 27.8022 53.3851 29.2116C53.2089 29.4962 53.2495 29.8757 53.4935 30.1061L55.7162 32.3286C54.4829 34.0498 52.9922 35.5405 51.2709 36.7737L49.0482 34.5512C48.8042 34.3072 48.4382 34.2666 48.1536 34.4428C46.7441 35.3101 45.2126 35.947 43.5998 36.3265C43.2745 36.4078 43.0441 36.6924 43.0441 37.0312V40.1753C40.9704 40.5141 38.829 40.5141 36.7554 40.1753V37.0312C36.7554 36.6924 36.5251 36.4078 36.1998 36.3265C34.587 35.9335 33.0554 35.3101 31.6458 34.4428C31.3612 34.2666 30.9819 34.3072 30.7515 34.5512L28.5287 36.7737C26.8075 35.5405 25.3166 34.0498 24.0833 32.3286L26.306 30.1061C26.55 29.8621 26.5906 29.4962 26.4144 29.2116C25.547 27.8022 24.9099 26.2708 24.5305 24.6581C24.4491 24.3329 24.1647 24.1025 23.8258 24.1025H20.6814C20.5188 23.0725 20.424 22.0154 20.424 20.9584C20.424 19.9013 20.5052 18.8443 20.6814 17.8143H23.8258C24.1647 17.8143 24.4627 17.5839 24.5305 17.2586C24.9235 15.6459 25.547 14.1146 26.4144 12.7051C26.5906 12.4205 26.55 12.0411 26.306 11.8107L24.0833 9.58813C25.3166 7.86701 26.8075 6.37628 28.5287 5.14303L30.7515 7.36558C30.9954 7.60952 31.3612 7.65018 31.6458 7.474C33.0554 6.60666 34.587 5.96971 36.1998 5.59025C36.5251 5.50894 36.7554 5.22434 36.7554 4.88554V1.74145C38.829 1.40265 40.9704 1.40265 43.0441 1.74145V4.88554C43.0441 5.22434 43.2745 5.52249 43.5998 5.59025C45.2126 5.98327 46.7441 6.60666 48.1536 7.474C48.4382 7.65018 48.8178 7.60952 49.0482 7.36558L51.2709 5.14303C52.9922 6.37628 54.4829 7.86701 55.7162 9.58813L53.4935 11.8107C53.2495 12.0546 53.2089 12.4205 53.3851 12.7051C54.2525 14.1146 54.8895 15.6459 55.269 17.2586C55.3503 17.5839 55.635 17.8143 55.9738 17.8143H59.1181C59.2807 18.8443 59.3757 19.9013 59.3757 20.9584C59.3757 22.0154 59.2943 23.0725 59.1181 24.1025Z" fill="#2B2F67"/>
<path d="M47.9773 16.7437C47.1099 15.0768 45.7682 13.7351 44.0876 12.8542C43.6132 12.6103 43.1254 12.407 42.6239 12.2444C40.8485 11.6887 38.8967 11.6887 37.1348 12.2444C36.6334 12.407 36.132 12.6103 35.6711 12.8542C34.0041 13.7215 32.6624 15.0632 31.7814 16.7437C31.5375 17.218 31.3341 17.7059 31.1714 18.2073C30.8868 19.0882 30.7514 20.0233 30.7514 20.9584C30.7514 21.8935 30.8868 22.815 31.1714 23.7095C31.3341 24.2109 31.5375 24.7123 31.7814 25.1731C32.6488 26.84 33.9906 28.1817 35.6711 29.0626C36.1455 29.3065 36.6334 29.5098 37.1348 29.6724C38.0158 29.957 38.951 30.0925 39.8862 30.0925C40.8213 30.0925 41.743 29.957 42.6375 29.6724C43.1389 29.5098 43.6403 29.3065 44.1012 29.0626C45.7682 28.1952 47.1099 26.8536 47.9909 25.1731C48.2349 24.6988 48.4381 24.2109 48.6007 23.7095C48.8853 22.8286 49.0209 21.8935 49.0209 20.9584C49.0209 20.0233 48.8853 19.1017 48.6007 18.2073C48.4381 17.7059 48.2349 17.2044 47.9909 16.7437H47.9773ZM47.1913 23.2758C47.0558 23.6959 46.8931 24.116 46.6763 24.509C45.9444 25.9185 44.8195 27.0433 43.4099 27.7751C43.0169 27.9784 42.6103 28.1546 42.1766 28.2901C40.6857 28.7644 39.0459 28.7644 37.5551 28.2901C37.1349 28.1546 36.7147 27.9919 36.3217 27.7751C34.9121 27.0433 33.7872 25.9185 33.0553 24.509C32.852 24.116 32.6758 23.7095 32.5403 23.2758C32.3099 22.5304 32.1879 21.758 32.1879 20.9719C32.1879 20.1859 32.3099 19.4134 32.5403 18.6681C32.6758 18.248 32.8385 17.8279 33.0553 17.4348C33.7872 16.0254 34.9121 14.9006 36.3217 14.1688C36.7147 13.9655 37.1214 13.7893 37.5551 13.6538C38.3005 13.4234 39.0729 13.3014 39.859 13.3014C40.6451 13.3014 41.4176 13.4234 42.163 13.6538C42.5831 13.7893 43.0033 13.9519 43.3964 14.1688C44.8059 14.9006 45.9308 16.0254 46.6627 17.4348C46.866 17.8279 47.0422 18.2344 47.1777 18.6681C47.4081 19.4134 47.5301 20.1859 47.5301 20.9719C47.5301 21.758 47.4081 22.5304 47.1777 23.2758H47.1913Z" fill="#2B2F67"/>
</svg>
