<svg version="1.2" xmlns="http://www.w3.org/2000/svg" viewBox="0 0 24 24" width="24" height="24">
	<title>iconmonstr-whatsapp-3</title>
	<style>
		.s0 { fill: #2b2f67 } 
	</style>
	<path class="s0" d="m19 0h-14c-2.8 0-5 2.2-5 5v14c0 2.8 2.2 5 5 5h14c2.8 0 5-2.2 5-5v-14c0-2.8-2.2-5-5-5zm-7 19.9c-1.3 0-2.6-0.4-3.8-1l-4.2 1.1 1.2-4.1c-0.7-1.2-1.1-2.6-1.1-4 0-4.3 3.6-7.9 7.9-7.9 2.2 0 4.1 0.8 5.6 2.3 1.5 1.5 2.4 3.5 2.4 5.6 0 4.4-3.6 8-8 8zm0-14.6c-3.6 0-6.6 3-6.6 6.6 0 1.5 0.5 2.6 1.2 3.8l-0.7 2.4 2.5-0.6c1.2 0.6 2.2 1 3.6 1 3.7 0 6.6-2.9 6.6-6.6 0-3.6-2.9-6.6-6.6-6.6zm3.9 9.5c-0.2 0.4-0.9 0.8-1.3 0.9-0.4 0.1-0.8 0.1-1.3-0.1q-0.4-0.1-1.1-0.4c-2-0.8-3.3-2.8-3.4-3-0.1-0.1-0.8-1.1-0.8-2 0-1 0.5-1.5 0.7-1.7 0.2-0.2 0.4-0.2 0.5-0.2h0.4c0.1 0 0.3-0.1 0.5 0.3 0.1 0.4 0.5 1.4 0.6 1.5 0 0.1 0 0.2 0 0.3-0.1 0.2-0.1 0.2-0.2 0.4l-0.3 0.3c-0.1 0.1-0.2 0.2-0.1 0.4 0.1 0.2 0.5 0.9 1.1 1.4 0.8 0.7 1.4 0.9 1.6 1 0.2 0.1 0.3 0.1 0.4-0.1 0.1-0.1 0.5-0.6 0.6-0.8 0.2-0.2 0.3-0.1 0.5-0.1 0.2 0.1 1.2 0.6 1.3 0.7 0.2 0.1 0.4 0.1 0.4 0.2 0.1 0.1 0.1 0.5-0.1 1z"/>
</svg>